<svg width="276" height="277" viewBox="0 0 276 277" fill="none" xmlns="http://www.w3.org/2000/svg">
<path d="M275.499 52.0345C169.587 304.712 23.6156 237.732 26.9106 218.383C39.0169 166.498 81.1702 124.354 121.459 121.562C161.748 118.769 224.61 95.0292 224.61 95.0292C155.83 117.998 72.6029 80.0527 21.0102 191.401C0.244762 165.425 32.1263 83.6481 99.9041 70.1994C167.682 56.7507 237.93 90.2115 275.499 52.0345Z" fill="#15803D"/>
<path d="M256.368 33.9528C176.854 296.138 24.7983 244.438 26.0971 224.854C32.8332 172.002 70.4551 125.769 110.247 118.87C150.04 111.972 210.143 81.9269 210.143 81.9269C144.074 111.81 57.4017 82.5757 17.4679 198.617C-5.84528 174.901 17.5051 90.2921 83.552 69.9818C149.599 49.6715 222.901 75.772 256.368 33.9528Z" fill="#16A34A"/>
<path d="M229 19C183.273 289.134 25.9006 257.074 24.7128 237.483C24.7128 184.204 56.1873 133.584 94.7881 121.71C133.389 109.836 189.212 72.4333 189.212 72.4333C127.45 110.43 37.7778 92.3883 12.8357 212.547C-13.2888 191.969 -0.823129 105.087 62.1259 76.5892C125.075 48.0915 201.089 64.7149 229 19Z" fill="#22C55E"/>
</svg>
